
(all smile encodes and repacks are hosted)
(on high speed servers / boxes trusted,  )
{clean and verified sources              )

Thanks to Atomicservers for the seedboxes provided

[code]
                          oooo$$$$$$$$$$$$oooo
                      oo$$$$$$$$$$$$$$$$$$$$$$$$o
                   oo$$$$$$$$$$$$$$$$$$$$$$$$$$$$$$o         o$   $$ o$
   o $ oo        o$$$$$$$$$$$$$$$$$$$$$$$$$$$$$$$$$$$$o       $$ $$ $$o$
oo $ $ "$      o$$$$$$$$$    $$$$$$$$$$$$$    $$$$$$$$$o       $$$o$$o$
"$$$$$$o$     o$$$$$$$$$      $$$$$$$$$$$      $$$$$$$$$$o    $$$$$$$$
  $$$$$$$    $$$$$$$$$$$      $$$$$$$$$$$      $$$$$$$$$$$$$$$$$$$$$$$
  $$$$$$$$$$$$$$$$$$$$$$$    $$$$$$$$$$$$$    $$$$$$$$$$$$$$  """$$$
      "$$$
    $$$   o$$$$$$$$$$$$$$$$$$$$$$$$$$$$$$$$$$$$$$$$$$$$$$$$$$     "$$$o
   o$$"   $$$$$$$$$$$$$$$$$$$$$$$$$$$$$$$$$$$$$$$$$$$$$$$$$$$       $$$o
   $$$    $$$$$$$$$$$$$$$$$$$$$$$$$$$$$$$$$$$$$$$$$$$$$" "$$$$$$ooooo$$$$o
  o$$$oooo$$$$$  $$$$$$$$$$$$$$$$$$$$$$$$$$$$$$$$$$$$$   o$$$$$$$$$$$$$$$$$
  $$$$$$$$"$$$$   $$$$$$$$$$$$$$$$$$$$$$$$$$$$$$$$$$    
      $$$$    "$$$$$$$$$$$$$$$$$$$$$$$$$$$$"      o$$$
            "$$$o     """$$$$$$$$$$$$$$$$$$"$$"         $$$
              $$$o                   o$$$
               $$$$o                                o$$$"
                "$$$$o      o$$$$$$o"$$$$o        o$$$$
                  "$$$$$oo     ""$$$$o$$$$$o   o$$$$""
                     ""$$$$$oooo  "$$$o$$$$$$$$$"""
                        ""$$$$$$$oo $$$$$$$$$$
                               
                                    $$$$$$$$$$$$
                                     $$$$$$$$$$"

                                                    .:::.
            ....                                    :::::
          ,;' .;:                ::  ..:            `:::'
          ::.      ..:,:;.,:;.    .   ::   .::::.    `:'
           '''::,   ::  ::  ::  `::   ::  ;:   .::    :
         ,:';  ::;  ::  ::  ::   ::   ::  ::,::''.    .
         `:,,,,;;' ,;; ,;;, ;;, ,;;, ,;;, `:,,,,:'   :;:

          Another Fine Release Brought to you from - SMiL3


*************************************************************************
              The.A.Team.2010.R5.LiNE.XviD-SMiL3
*************************************************************************
[/code]
[b]




[color=yellow]Info[/color]

Ripper ...........: SMiL3
Video Codec.......: XVID
Release Date......: 2008
Audio Codec.......: AC3
Runtime...........: 1h 53mn
Subtitles.........: None
Language..........: ENGLISH
Resolution........: 640*272

[color=yellow]Video[/color]

ID                               : 0
Format                           : MPEG-4 Visual
Format profile                   : Advanced Simple@L5
Format settings, BVOP            : Yes
Format settings, QPel            : No
Format settings, GMC             : No warppoints
Format settings, Matrix          : Default (H.263)
Muxing mode                      : Packed bitstream
Codec ID                         : XVID
Codec ID/Hint                    : XviD
Duration                         : 1h 53mn
Bit rate                         : 827 Kbps
Width                            : 640 pixels
Height                           : 272 pixels
Display aspect ratio             : 2.35:1
Frame rate                       : 29.970 fps
Color space                      : YUV
Chroma subsampling               : 4:2:0
Bit depth                        : 8 bits
Scan type                        : Progressive
Bits/(Pixel*Frame)               : 0.159
Stream size                      : 674 MiB (78%)
Writing library                  : XviD 1.2.1 (UTC 2008-12-04)

[color=yellow]Audio[/color]

ID                               : 1
Format                           : AC-3
Format/Info                      : Audio Coding 3
Mode extension                   : CM (complete main)
Codec ID                         : 2000
Duration                         : 1h 53mn
Bit rate mode                    : Constant
Bit rate                         : 224 Kbps
Channel(s)                       : 2 channels
Channel positions                : Front: L R
Sampling rate                    : 48.0 KHz
Stream size                      : 182 MiB (21%)
Alignment                        : Aligned on interleaves
Interleave, duration             : 64 ms (1.92 video frames)
Interleave, preload duration     : 192 ms
Title                            : VTS_01_1 T01 2_0ch 224Kbps DELAY 0ms



[color=yellow]Screens[/color]


[color=yellow]Ripper note[/color]

Okay did a few things to this one.. Little out of sync in some parts, but not
really noticable.. Enjoy

-SMiL3 Crew

Don't want it? Don't download it.
Have something we can use? LINE, CAM's, SCR's, DVD or BluRay? --> smil3rg[at]hushmail.com

*ANOTHER SMiL3 RELEASE


[/b]